<svg xmlns="http://www.w3.org/2000/svg" viewBox="0 0 24 24">
  <title>GitHub</title>
  <path d="M12 .5C5.37.5 0 5.87 0 12.5c0 5.28 3.438 9.76 8.207 11.34.6.112.793-.26.793-.577 0-.285-.012-1.24-.017-2.245-3.338.726-4.042-1.607-4.042-1.607-.546-1.39-1.333-1.76-1.333-1.76-1.09-.744.082-.729.082-.729 1.206.085 1.84 1.237 1.84 1.237 1.07 1.833 2.805 1.303 3.492.996.108-.776.42-1.304.763-1.605-2.665-.305-5.466-1.332-5.466-5.932 0-1.31.468-2.382 1.236-3.222-.124-.303-.536-1.523.117-3.176 0 0 1.008-.323 3.3 1.23a11.5 11.5 0 0 1 6 0c2.29-1.553 3.296-1.23 3.296-1.23.655 1.653.243 2.873.12 3.176.77.84 1.235 1.913 1.235 3.222 0 4.61-2.805 5.624-5.475 5.922.43.37.823 1.103.823 2.222 0 1.606-.014 2.9-.014 3.293 0 .32.192.694.8.576C20.565 22.257 24 17.78 24 12.5 24 5.87 18.63.5 12 .5Z" fill="currentColor"/>
</svg>
